<svg width="46" height="64" viewBox="0.354248046875 0.048583984375 45.29150390625 63.90283203125" fill="none" xmlns="http://www.w3.org/2000/svg">
<path d="M36.4389 62.6094L1.9731 35.4045C0.732754 34.4394 0.153959 33.3633 0.14811 32.1048C0.14226 30.8462 0.75483 29.6927 1.94218 28.7522L36.1538 1.26412C37.1652 0.46831 38.3549 0.0312699 39.8114 0.0245005C42.7686 0.0107564 45.0724 1.86994 45.0835 4.2432C45.0888 5.39387 44.5202 6.51126 43.5089 7.34302L12.6829 32.0105L43.7372 56.4624C44.7562 57.2847 45.335 58.3608 45.3405 59.5474C45.3515 61.9207 43.0651 63.8012 40.1079 63.815C38.6955 63.8215 37.4577 63.3958 36.4389 62.6094Z" fill="white"/>
</svg>
