<svg width="77" height="51" viewBox="0.32958984375 0.33740234375 76.3408203125 50.3251953125" fill="none" xmlns="http://www.w3.org/2000/svg">
<path d="M70.2483 50.7595H6.75156C3.05428 50.7595 0 48.1245 0 44.9347V5.82486C0 2.63505 3.05428 0 6.75156 0H70.2483C73.9455 0 76.9998 2.63505 76.9998 5.82486V44.9347C76.9998 48.1245 73.9455 50.7595 70.2483 50.7595ZM6.59079 3.74455C5.30479 3.74455 4.34029 4.57667 4.34029 5.68617V44.796C4.34029 45.9055 5.30479 46.7376 6.59079 46.7376H70.0875C71.3735 46.7376 72.338 45.9055 72.338 44.796V5.68617C72.338 4.57667 71.3735 3.74455 70.0875 3.74455H6.59079Z" fill="#31465E"/>
</svg>
