<svg width="98" height="98" viewBox="0.291259765625 0.31494140625 97.41748046875 97.3701171875" fill="none" xmlns="http://www.w3.org/2000/svg">
<path d="M48.9762 97.9525C75.8327 97.9525 97.9999 75.7853 97.9999 48.9762C97.9999 22.1672 75.7853 0 48.9289 0C22.1198 0 0 22.1672 0 48.9762C0 75.7853 22.1672 97.9525 48.9762 97.9525ZM48.9289 56.6969C39.6452 56.6495 32.4456 48.8815 32.4456 38.6031C32.3509 28.9405 39.6925 20.8883 48.9289 20.8883C58.1652 20.8883 65.4122 28.9405 65.4122 38.6031C65.4122 48.8815 58.2126 56.7916 48.9289 56.6969ZM48.9289 89.8529C38.3189 89.8529 27.0459 85.4479 19.8936 77.7747C25.3407 69.6277 36.1401 64.8912 48.9289 64.8912C61.5756 64.8912 72.4697 69.533 77.9641 77.7747C70.8119 85.4479 59.5388 89.8529 48.9289 89.8529Z" fill="#31465E"/>
</svg>
