<svg width="79" height="80" viewBox="0.139892578125 0.16064453125 78.72021484375 79.6787109375" fill="none" xmlns="http://www.w3.org/2000/svg">
<path d="M48.087 57.06C48.087 57.06 54.751 53.1984 56.4956 52.2705C58.2352 51.3393 60.0374 51.1044 61.1319 51.7808C62.7892 52.807 76.7063 62.1777 77.8782 63.0073C79.05 63.8386 79.6145 66.2125 78.0032 68.5381C76.3986 70.8637 68.9956 80.0594 65.8587 79.9611C62.7168 79.8579 49.6538 79.568 25.0207 54.6278C0.392533 29.6959 0.101221 16.4704 0.000825614 13.2902C-0.09957 10.1116 8.98541 2.61673 11.283 0.990814C13.5839 -0.633438 15.9324 -0.022053 16.7488 1.12075C17.677 2.42182 26.8278 16.4637 27.8351 18.073C28.5247 19.1724 28.2712 21.0066 27.3512 22.7691C26.4361 24.535 22.6211 31.2802 22.6211 31.2802C22.6211 31.2802 25.3104 35.9231 34.4052 45.1272C43.5017 54.3329 48.087 57.06 48.087 57.06Z" stroke="#31465E" stroke-width="4" stroke-miterlimit="10"/>
</svg>
