<svg width="71" height="73" viewBox="0.083251953125 0.24951171875 70.83349609375 72.5009765625" fill="none" xmlns="http://www.w3.org/2000/svg">
<path d="M31.896 4.23175C32.2183 2.25235 30.9119 0.380142 28.9782 0.0500726C27.0442 -0.280033 25.215 1.05703 24.8925 3.03643L21.8366 21.7928L7.09775 21.8017C5.13712 21.8029 3.54868 23.4307 3.54985 25.4374C3.55099 27.4441 5.14131 29.07 7.10194 29.0689L20.6525 29.0606L18.2843 43.5961L3.5484 43.603C1.58781 43.6037 -0.000887126 45.2312 3.71659e-07 47.238C0.00088787 49.2448 1.59096 50.8708 3.55159 50.87L17.1003 50.8638L14.2367 68.4399C13.9142 70.4191 15.2205 72.2915 17.1544 72.6214C19.0883 72.9517 20.9174 71.6145 21.24 69.635L24.2988 50.8606L41.962 50.8522L39.0982 68.4403C38.7759 70.4195 40.0822 72.2918 42.0163 72.6214C43.95 72.9513 45.7793 71.6142 46.1013 69.635L49.1603 50.849L63.9013 50.8424C65.8619 50.8413 67.4506 49.2139 67.4498 47.2071C67.4491 45.2006 65.8587 43.5743 63.8984 43.5754L50.3439 43.5815L52.7113 29.0413L67.4516 29.0324C69.4123 29.0312 71.0009 27.4035 70.9998 25.3967C70.9984 23.39 69.4084 21.7642 67.4477 21.7653L53.8949 21.7735L56.7512 4.23146C57.0736 2.25199 55.7672 0.379924 53.8335 0.0499999C51.8995 -0.279888 50.0705 1.05732 49.7482 3.03675L46.6962 21.7778L29.0354 21.7885L31.896 4.23175ZM27.8513 29.0563L45.513 29.0456L43.1455 43.5848L25.4829 43.5928L27.8513 29.0563Z" fill="#31465E"/>
</svg>
