<svg width="46" height="64" viewBox="0.354248046875 0.048583984375 45.29150390625 63.90283203125" fill="none" xmlns="http://www.w3.org/2000/svg">
<path d="M36.4391 62.6094L1.97335 35.4045C0.732998 34.4394 0.154203 33.3633 0.148354 32.1048C0.142505 30.8462 0.755075 29.6927 1.94243 28.7522L36.154 1.26412C37.1655 0.46831 38.3552 0.0312699 39.8117 0.0245005C42.7689 0.0107564 45.0727 1.86994 45.0837 4.2432C45.0891 5.39387 44.5205 6.51126 43.5092 7.34302L12.6831 32.0105L43.7374 56.4624C44.7564 57.2847 45.3352 58.3608 45.3408 59.5474C45.3518 61.9207 43.0653 63.8012 40.1082 63.815C38.6958 63.8215 37.4579 63.3958 36.4391 62.6094Z" fill="black"/>
</svg>
