<svg width="98" height="98" viewBox="0.2913818359375 0.3148193359375 97.417236328125 97.370361328125" fill="none" xmlns="http://www.w3.org/2000/svg">
<path d="M48.9764 97.9527C75.8328 97.9527 98.0001 75.7855 98.0001 48.9764C98.0001 22.1673 75.7855 0 48.929 0C22.1199 0 0 22.1673 0 48.9764C0 75.7855 22.1673 97.9527 48.9764 97.9527ZM48.929 56.697C39.6453 56.6496 32.4457 48.8816 32.4457 38.6032C32.3509 28.9406 39.6926 20.8884 48.929 20.8884C58.1654 20.8884 65.4123 28.9406 65.4123 38.6032C65.4123 48.8816 58.2127 56.7917 48.929 56.697ZM48.929 89.8532C38.319 89.8532 27.0459 85.4481 19.8937 77.7749C25.3408 69.6279 36.1402 64.8913 48.929 64.8913C61.5757 64.8913 72.4699 69.5332 77.9643 77.7749C70.8121 85.4481 59.539 89.8532 48.929 89.8532Z" fill="white"/>
</svg>
