<svg width="71" height="73" viewBox="0.0833740234375 0.24945068359375 70.833251953125 72.5010986328125" fill="none" xmlns="http://www.w3.org/2000/svg">
<path d="M31.8961 4.23176C32.2184 2.25236 30.912 0.380143 28.9783 0.0500728C27.0443 -0.280034 25.2151 1.05703 24.8926 3.03644L21.8367 21.7929L7.09777 21.8018C5.13714 21.803 3.54869 23.4307 3.54986 25.4375C3.551 27.4442 5.14133 29.0701 7.10196 29.069L20.6526 29.0607L18.2844 43.5962L3.54841 43.6031C1.58781 43.6039 -0.000887129 45.2313 3.7166e-07 47.2381C0.000887873 49.2449 1.59097 50.8709 3.5516 50.8702L17.1003 50.864L14.2367 68.4401C13.9142 70.4193 15.2205 72.2917 17.1544 72.6216C19.0883 72.9519 20.9175 71.6148 21.24 69.6352L24.2989 50.8608L41.9621 50.8524L39.0983 68.4405C38.776 70.4197 40.0824 72.2921 42.0164 72.6216C43.9501 72.9516 45.7794 71.6144 46.1014 69.6352L49.1605 50.8491L63.9015 50.8426C65.8622 50.8415 67.4508 49.214 67.4501 47.2072C67.4494 45.2008 65.859 43.5744 63.8986 43.5755L50.344 43.5817L52.7115 29.0414L67.4518 29.0325C69.4125 29.0313 71.0011 27.4036 71.0001 25.3968C70.9987 23.3901 69.4086 21.7643 67.4479 21.7654L53.8951 21.7736L56.7514 4.23147C57.0738 2.25199 55.7674 0.379925 53.8337 0.05C51.8996 -0.279889 50.0707 1.05732 49.7483 3.03676L46.6964 21.7779L29.0355 21.7886L31.8961 4.23176ZM27.8514 29.0564L45.5132 29.0457L43.1457 43.585L25.483 43.593L27.8514 29.0564Z" fill="white"/>
</svg>
