<svg width="88" height="88" viewBox="0.162109375 0.18341064453125 87.67578125 87.6331787109375" fill="none" xmlns="http://www.w3.org/2000/svg">
<path d="M43.9786 87.9573C68.0946 87.9573 87.9998 68.0521 87.9998 43.9786C87.9998 19.9052 68.0521 0 43.9361 0C19.8627 0 0 19.9052 0 43.9786C0 68.0521 19.9052 87.9573 43.9786 87.9573ZM43.9361 50.9115C35.5997 50.8689 29.1348 43.8936 29.1348 34.664C29.0497 25.9874 35.6423 18.7569 43.9361 18.7569C52.23 18.7569 58.7374 25.9874 58.7374 34.664C58.7374 43.8936 52.2725 50.9965 43.9361 50.9115ZM43.9361 80.6842C34.4088 80.6842 24.2861 76.7287 17.8637 69.8384C22.7549 62.5228 32.4523 58.2696 43.9361 58.2696C55.2923 58.2696 65.0748 62.4378 70.0086 69.8384C63.5861 76.7287 53.4634 80.6842 43.9361 80.6842Z" fill="black" fill-opacity="0.57"/>
</svg>
