<svg width="73" height="56" viewBox="0.0712890625 0.435791015625 72.857421875 55.12841796875" fill="none" xmlns="http://www.w3.org/2000/svg">
<path d="M71.7874 0H55.4998V4.25591C55.4998 8.02035 52.7474 11.0817 49.3629 11.0817C45.9783 11.0817 43.2259 8.02035 43.2259 4.25591V0H29.9562V4.25591C29.9562 8.02035 27.2037 11.0817 23.8192 11.0817C20.4346 11.0817 17.6822 8.02035 17.6822 4.25591V0H1.21207C0.365165 0 -0.158013 0.742307 0.0429736 1.65697L10.7796 50.2859C11.4271 53.0196 14.0138 55.2363 16.5545 55.2363H56.4449C58.9887 55.2363 61.5724 53.0196 62.2229 50.2859L72.9565 1.65697C73.1575 0.740601 72.6358 0 71.7874 0Z" fill="black" fill-opacity="0.57"/>
</svg>
