<svg width="11" height="18" viewBox="0.0029296875 0.10546875 10.994140625 17.7890625" fill="none" xmlns="http://www.w3.org/2000/svg">
<mask id="path-1-inside-1_1_711" fill="white">
<path d="M0.30677 3.5175C0.58817 2.74365 0.939924 2.11049 1.43237 1.61804C1.92482 1.12559 2.55797 0.703504 3.26147 0.422104C3.96497 0.140704 4.80917 0 5.72372 0C6.42722 0 7.13072 0.1407 7.76387 0.35175C8.39702 0.5628 8.95982 0.914541 9.45227 1.26629C9.94472 1.61804 10.2965 2.18084 10.5779 2.74364C10.8593 3.30644 11 4.00995 11 4.7838C11 5.7687 10.7889 6.54255 10.3668 7.24605C9.94472 7.94955 9.38192 8.5827 8.74877 9.21585C8.18597 9.77865 7.76386 10.2007 7.48247 10.4821C7.13072 10.7635 6.91967 11.1153 6.77897 11.3967C6.63827 11.6781 6.49757 12.0298 6.49757 12.4519C6.42722 12.874 6.42722 13.1554 6.42722 13.9293H4.80917C4.80917 13.1554 4.80917 12.8037 4.94987 12.3112C5.02022 11.7484 5.23127 11.3263 5.44232 10.8339C5.65337 10.4118 6.00512 9.9897 6.35687 9.5676C6.77897 9.1455 7.20107 8.72339 7.76387 8.23094C8.25632 7.80884 8.67842 7.3164 8.95982 6.7536C9.31157 6.1908 9.45227 5.55765 9.45227 4.9245C9.45227 4.43205 9.38192 3.9396 9.17087 3.5175C8.95982 3.0954 8.67842 2.74364 8.39702 2.39189C8.11562 2.04014 7.69352 1.8291 7.20107 1.6884C6.77897 1.5477 6.28652 1.407 5.79407 1.407C5.09057 1.407 4.45742 1.5477 3.96497 1.75875C3.40217 1.9698 2.98007 2.32154 2.62832 2.74364C2.27657 3.16574 1.99517 3.6582 1.85447 4.221C1.71377 4.7838 1.57308 5.27624 1.64343 5.90939H0.0253744C-0.0449756 4.92449 0.0253701 4.29135 0.30677 3.5175ZM4.52777 15.8287H6.49757V17.7985H4.52777V15.8287Z"/>
</mask>
<path d="M0.30677 3.5175C0.58817 2.74365 0.939924 2.11049 1.43237 1.61804C1.92482 1.12559 2.55797 0.703504 3.26147 0.422104C3.96497 0.140704 4.80917 0 5.72372 0C6.42722 0 7.13072 0.1407 7.76387 0.35175C8.39702 0.5628 8.95982 0.914541 9.45227 1.26629C9.94472 1.61804 10.2965 2.18084 10.5779 2.74364C10.8593 3.30644 11 4.00995 11 4.7838C11 5.7687 10.7889 6.54255 10.3668 7.24605C9.94472 7.94955 9.38192 8.5827 8.74877 9.21585C8.18597 9.77865 7.76386 10.2007 7.48247 10.4821C7.13072 10.7635 6.91967 11.1153 6.77897 11.3967C6.63827 11.6781 6.49757 12.0298 6.49757 12.4519C6.42722 12.874 6.42722 13.1554 6.42722 13.9293H4.80917C4.80917 13.1554 4.80917 12.8037 4.94987 12.3112C5.02022 11.7484 5.23127 11.3263 5.44232 10.8339C5.65337 10.4118 6.00512 9.9897 6.35687 9.5676C6.77897 9.1455 7.20107 8.72339 7.76387 8.23094C8.25632 7.80884 8.67842 7.3164 8.95982 6.7536C9.31157 6.1908 9.45227 5.55765 9.45227 4.9245C9.45227 4.43205 9.38192 3.9396 9.17087 3.5175C8.95982 3.0954 8.67842 2.74364 8.39702 2.39189C8.11562 2.04014 7.69352 1.8291 7.20107 1.6884C6.77897 1.5477 6.28652 1.407 5.79407 1.407C5.09057 1.407 4.45742 1.5477 3.96497 1.75875C3.40217 1.9698 2.98007 2.32154 2.62832 2.74364C2.27657 3.16574 1.99517 3.6582 1.85447 4.221C1.71377 4.7838 1.57308 5.27624 1.64343 5.90939H0.0253744C-0.0449756 4.92449 0.0253701 4.29135 0.30677 3.5175ZM4.52777 15.8287H6.49757V17.7985H4.52777V15.8287Z" fill="#2C3D52"/>
<path d="M7.48247 10.4821L23.1082 30.0143L24.19 29.1488L25.1696 28.1692L7.48247 10.4821ZM6.49757 12.4519L31.1706 16.5641L31.5109 14.5221V12.4519H6.49757ZM6.42722 13.9293V38.9426H31.4405V13.9293H6.42722ZM4.80917 13.9293H-20.2041V38.9426H4.80917V13.9293ZM4.94987 12.3112L29.0008 19.1829L29.5308 17.328L29.77 15.4138L4.94987 12.3112ZM5.44232 10.8339L-16.9303 -0.352407L-17.259 0.305042L-17.5486 0.98066L5.44232 10.8339ZM6.35687 9.5676L-11.3302 -8.11949L-12.1325 -7.31719L-12.8589 -6.44554L6.35687 9.5676ZM7.76387 8.23094L-8.51458 -10.7606L-8.61148 -10.6775L-8.70752 -10.5935L7.76387 8.23094ZM8.95982 6.7536L-12.2514 -6.50343L-12.8813 -5.49565L-13.4128 -4.4327L8.95982 6.7536ZM7.20107 1.6884L-0.708838 25.4181L-0.193218 25.59L0.329381 25.7393L7.20107 1.6884ZM3.96497 1.75875L12.7477 25.1795L13.2879 24.9769L13.8182 24.7496L3.96497 1.75875ZM1.64343 5.90939V30.9227H29.5899L26.5038 3.14713L1.64343 5.90939ZM0.0253744 5.90939L-24.9244 7.69152L-23.265 30.9227H0.0253744V5.90939ZM4.52777 15.8287V-9.18458H-20.4856V15.8287H4.52777ZM6.49757 15.8287H31.5109V-9.18458H6.49757V15.8287ZM6.49757 17.7985V42.8119H31.5109V17.7985H6.49757ZM4.52777 17.7985H-20.4856V42.8119H4.52777V17.7985ZM23.8141 12.0656C23.3418 13.3645 22.0708 16.3538 19.1195 19.3051L-16.2547 -16.0691C-20.1909 -12.1328 -22.1655 -7.87723 -23.2006 -5.03063L23.8141 12.0656ZM19.1195 19.3051C17.1788 21.2458 14.9428 22.6897 12.5512 23.6464L-6.02825 -22.8022C-9.8269 -21.2827 -13.3291 -18.9946 -16.2547 -16.0691L19.1195 19.3051ZM12.5512 23.6464C9.6557 24.8046 7.21461 25.0133 5.72372 25.0133V-25.0133C2.40372 -25.0133 -1.72576 -24.5232 -6.02825 -22.8022L12.5512 23.6464ZM5.72372 25.0133C3.20293 25.0133 1.20781 24.5328 -0.146036 24.0815L15.6738 -23.378C13.0536 -24.2514 9.6515 -25.0133 5.72372 -25.0133V25.0133ZM-0.146036 24.0815C-3.01994 23.1235 -4.84161 21.7953 -5.08643 21.6205L23.991 -19.0879C22.7612 -19.9663 19.814 -21.9979 15.6738 -23.378L-0.146036 24.0815ZM-5.08643 21.6205C-7.64034 19.7963 -9.26088 17.8451 -10.1651 16.5964C-11.0715 15.3447 -11.601 14.3174 -11.7947 13.9299L32.9505 -8.44265C32.2777 -9.78814 29.6846 -15.021 23.991 -19.0879L-5.08643 21.6205ZM-11.7947 13.9299C-13.6738 10.1717 -14.0134 6.81894 -14.0134 4.7838H36.0133C36.0133 1.20096 35.3924 -3.55886 32.9505 -8.44265L-11.7947 13.9299ZM-14.0134 4.7838C-14.0134 3.471 -13.8703 1.75626 -13.3617 -0.193401C-12.8421 -2.18517 -12.0471 -4.0145 -11.0819 -5.6232L31.8156 20.1153C34.8305 15.0904 36.0133 9.76799 36.0133 4.7838H-14.0134ZM-11.0819 -5.6232C-10.4774 -6.6307 -9.90681 -7.36449 -9.53629 -7.80672C-9.34847 -8.03089 -9.19589 -8.19926 -9.09776 -8.30465C-9.0003 -8.40934 -8.94055 -8.46902 -8.93832 -8.47124L26.4359 26.9029C27.5812 25.7576 29.8287 23.4267 31.8156 20.1153L-11.0819 -5.6232ZM-8.93832 -8.47124C-9.21967 -8.1899 -9.46585 -7.94372 -9.67689 -7.73268C-9.88789 -7.52168 -10.0639 -7.34572 -10.2046 -7.20495L25.1696 28.1692C25.3102 28.0286 25.486 27.8528 25.6971 27.6417C25.9081 27.4307 26.1544 27.1844 26.4359 26.9029L-8.93832 -8.47124ZM-8.14323 -9.04998C-12.5908 -5.4919 -14.7668 -1.44321 -15.5936 0.210395L29.1516 22.583C28.6062 23.6738 26.8523 27.019 23.1082 30.0143L-8.14323 -9.04998ZM-15.5936 0.210395C-16.4423 1.90779 -18.5158 6.36254 -18.5158 12.4519H31.5109C31.5109 17.6971 29.7189 21.4484 29.1516 22.583L-15.5936 0.210395ZM-18.1754 8.33978C-18.6462 11.1647 -18.5861 13.5693 -18.5861 13.9293H31.4405C31.4405 13.8275 31.4405 13.7604 31.4406 13.7026C31.4407 13.6758 31.4407 13.6566 31.4408 13.643C31.4409 13.6294 31.4409 13.6241 31.4409 13.6253C31.4409 13.6265 31.4408 13.6368 31.4406 13.6543C31.4403 13.6719 31.4399 13.6992 31.4392 13.7345C31.4378 13.8037 31.4351 13.9156 31.4293 14.0586C31.4173 14.36 31.3932 14.7755 31.3433 15.2687C31.2929 15.7675 31.2302 16.2062 31.1706 16.5641L-18.1754 8.33978ZM6.42722 -11.084H4.80917V38.9426H6.42722V-11.084ZM29.8225 13.9293C29.8225 13.6833 29.823 13.7153 29.822 13.787C29.8206 13.8825 29.8144 14.267 29.7765 14.7968C29.7357 15.369 29.6596 16.0956 29.5154 16.9288C29.3703 17.7673 29.189 18.5242 29.0008 19.1829L-19.101 5.43956C-20.3555 9.83002 -20.2041 13.6675 -20.2041 13.9293H29.8225ZM29.77 15.4138C29.506 17.5264 28.9846 19.1941 28.5996 20.2336C28.4284 20.6957 28.2865 21.0248 28.266 21.0724C28.2568 21.094 28.2508 21.1074 28.2856 21.0276C28.3099 20.9721 28.3685 20.8382 28.4332 20.6871L-17.5486 0.98066C-17.5366 0.952727 -17.5308 0.939722 -17.5587 1.00372C-17.5761 1.04348 -17.6337 1.17511 -17.6935 1.31425C-17.8152 1.59714 -18.0538 2.15919 -18.3129 2.85878C-18.8738 4.37316 -19.5359 6.53334 -19.8703 9.20872L29.77 15.4138ZM27.8149 22.0202C26.9846 23.6808 26.1564 24.8102 25.8574 25.2089C25.5632 25.6011 25.3157 25.889 25.5726 25.5807L-12.8589 -6.44554C-12.9537 -6.33171 -13.553 -5.62168 -14.1637 -4.80738C-14.7793 -3.98665 -15.8889 -2.43514 -16.9303 -0.352407L27.8149 22.0202ZM24.044 27.2547C24.1565 27.1421 24.2171 27.0816 24.2719 27.0274C24.3204 26.9794 24.3407 26.9598 24.3446 26.956C24.3471 26.9537 24.3347 26.9656 24.3119 26.9866C24.2888 27.0079 24.2625 27.0316 24.2353 27.0554L-8.70752 -10.5935C-9.96106 -9.49665 -10.9048 -8.54492 -11.3302 -8.11949L24.044 27.2547ZM24.0423 27.2225C26.3871 25.2127 29.2064 22.1919 31.3324 17.9399L-13.4128 -4.4327C-11.8496 -7.55912 -9.87446 -9.59497 -8.51458 -10.7606L24.0423 27.2225ZM30.1711 20.0106C33.4907 14.6992 34.4656 9.24162 34.4656 4.9245H-15.5611C-15.5611 1.87367 -14.8676 -2.31763 -12.2514 -6.50343L30.1711 20.0106ZM34.4656 4.9245C34.4656 2.38986 34.1604 -2.43491 31.5435 -7.6688L-13.2017 14.7038C-15.3966 10.3141 -15.5611 6.47424 -15.5611 4.9245H34.4656ZM31.5435 -7.6688C29.9636 -10.8285 27.9841 -13.165 27.9291 -13.2338L-11.1351 18.0176C-10.9257 18.2794 -11.2142 17.9285 -11.5438 17.467C-11.9294 16.9273 -12.5625 15.9823 -13.2017 14.7038L31.5435 -7.6688ZM27.9291 -13.2338C22.9964 -19.3997 16.8328 -21.5739 14.0728 -22.3625L0.329381 25.7393C-1.44578 25.2321 -6.76518 23.48 -11.1351 18.0176L27.9291 -13.2338ZM15.111 -22.0413C14.3194 -22.3052 10.5789 -23.6063 5.79407 -23.6063V26.4203C3.71396 26.4203 2.07499 26.1298 1.0979 25.9126C0.1206 25.6955 -0.576408 25.4623 -0.708838 25.4181L15.111 -22.0413ZM5.79407 -23.6063C1.87718 -23.6063 -2.12612 -22.8445 -5.88827 -21.2321L13.8182 24.7496C11.0409 25.9399 8.30396 26.4203 5.79407 26.4203V-23.6063ZM-4.8178 -21.662C-10.4256 -19.559 -14.2197 -16.1108 -16.5874 -13.2695L21.8441 18.7568C20.1798 20.7539 17.2299 23.4986 12.7477 25.1795L-4.8178 -21.662ZM-16.5874 -13.2695C-18.8462 -10.559 -21.1846 -6.75546 -22.412 -1.84562L26.121 10.2876C25.1749 14.0719 23.3994 16.8905 21.8441 18.7568L-16.5874 -13.2695ZM-22.412 -1.84562C-22.4671 -1.62543 -22.3785 -1.98009 -22.4615 -1.64883C-22.49 -1.53515 -22.5388 -1.33903 -22.5936 -1.10674C-22.7024 -0.645336 -22.8731 0.118148 -23.0244 1.05606C-23.3521 3.08764 -23.5493 5.67976 -23.2169 8.67165L26.5038 3.14713C27.0188 7.78248 25.7437 11.7968 26.121 10.2876L-22.412 -1.84562ZM1.64343 -19.1039H0.0253744V30.9227H1.64343V-19.1039ZM24.9751 4.12727C25.0069 4.57259 25.0762 5.83692 24.8801 7.5233C24.6677 9.34983 24.2373 10.902 23.8141 12.0656L-23.2006 -5.03063C-24.9367 -0.256429 -25.1864 4.02361 -24.9244 7.69152L24.9751 4.12727ZM4.52777 40.8421H6.49757V-9.18458H4.52777V40.8421ZM-18.5158 15.8287V17.7985H31.5109V15.8287H-18.5158ZM6.49757 -7.21478H4.52777V42.8119H6.49757V-7.21478ZM29.5411 17.7985V15.8287H-20.4856V17.7985H29.5411Z" fill="black" mask="url(#path-1-inside-1_1_711)"/>
</svg>
