<svg width="84" height="79" viewBox="0.40478515625 0.399169921875 83.1904296875 78.20166015625" fill="none" xmlns="http://www.w3.org/2000/svg">
<path d="M39.4323 32.7905C32.2504 28.389 22.8027 28.7166 15.8904 34.314C7.11093 41.4235 5.75832 54.2927 12.8678 63.0721C19.9772 71.8516 32.8464 73.2042 41.6259 66.0947C48.5382 60.4973 50.8228 51.3241 48.0108 43.384L59.5313 34.0549L68.1098 44.6485L78.7033 36.07L70.1248 25.4764L75.4216 21.1872L66.8431 10.5936L39.4323 32.7905ZM33.0474 55.5012C30.1209 57.871 25.8311 57.4201 23.4613 54.4936C21.0915 51.5672 21.5424 47.2774 24.4689 44.9076C27.3953 42.5378 31.6851 42.9887 34.0549 45.9151C36.4247 48.8416 35.9738 53.1314 33.0474 55.5012Z" fill="#31465E"/>
</svg>
