<svg width="520" height="520" viewBox="0.220458984375 0.345947265625 519.55908203125 519.30810546875" fill="none" xmlns="http://www.w3.org/2000/svg">
<path d="M259.874 519.749C402.378 519.749 520 402.127 520 259.874C520 117.622 402.127 0 259.623 0C117.371 0 0 117.622 0 259.874C0 402.127 117.622 519.749 259.874 519.749ZM259.623 300.841C210.363 300.59 172.16 259.372 172.16 204.833C171.658 153.562 210.614 110.836 259.623 110.836C308.632 110.836 347.086 153.562 347.086 204.833C347.086 259.372 308.884 301.344 259.623 300.841ZM259.623 476.771C203.325 476.771 143.509 453.398 105.558 412.683C134.461 369.454 191.764 344.321 259.623 344.321C326.728 344.321 384.534 368.951 413.688 412.683C375.737 453.398 315.921 476.771 259.623 476.771Z" fill="#31465E"/>
</svg>
