<svg width="107" height="63" viewBox="0 0 107 63" fill="none" xmlns="http://www.w3.org/2000/svg">
<path d="M84.5379 62.185C85.7574 63.2375 87.7243 63.3054 88.9831 62.185C90.2813 61.0307 90.2026 59.401 88.9831 58.3486L22.2261 0.802136C21.0066 -0.250336 19.0004 -0.284286 17.7809 0.802136C16.6007 1.82066 16.6007 3.58609 17.7809 4.60461L84.5379 62.185ZM88.2357 51.7961C99.7224 45.1417 107 36.1448 107 32.1386C107 25.2806 85.4033 3.04288 53.5 3.04288C46.8125 3.04288 40.5577 4.02745 34.893 5.65708L45.6717 14.9596C48.1107 14.1108 50.7463 13.6355 53.5393 13.6355C65.4588 13.6355 75.0967 21.8176 75.0967 32.1726C75.0967 34.5491 74.5066 36.8578 73.4445 38.9288L88.2357 51.7961ZM53.5 61.2683C60.6989 61.2683 67.3864 60.1479 73.2871 58.2807L62.4298 48.9103C59.7548 50.0646 56.7257 50.6757 53.5393 50.6757C41.5412 50.6757 31.982 42.222 31.9426 32.1726C31.9426 29.3547 32.6507 26.7065 33.9489 24.3639L19.7478 12.0398C7.5136 18.83 0 28.1324 0 32.1386C0 39.0306 21.9901 61.2683 53.5 61.2683ZM66.0882 31.4596C66.0882 25.5182 60.5809 20.7312 53.6574 20.7312C53.2246 20.7312 52.7919 20.7651 52.3985 20.7991L66.0096 32.5121C66.0489 32.2065 66.0882 31.8331 66.0882 31.4596ZM40.8724 31.5954C40.8724 37.5368 46.5371 42.3238 53.382 42.3238C53.854 42.3238 54.2868 42.2899 54.7195 42.2559L40.9511 30.3732C40.9118 30.7806 40.8724 31.188 40.8724 31.5954Z" fill="#31465E"/>
</svg>
