<svg width="84" height="79" viewBox="0.4046630859375 0.399169921875 83.190673828125 78.20166015625" fill="none" xmlns="http://www.w3.org/2000/svg">
<path d="M39.4322 32.7904C32.2503 28.3889 22.8026 28.7165 15.8903 34.3139C7.11091 41.4233 5.7583 54.2926 12.8677 63.0719C19.9771 71.8513 32.8463 73.204 41.6257 66.0945C48.538 60.4971 50.8227 51.3239 48.0106 43.3839L59.5311 34.0548L68.1096 44.6483L78.7031 36.0699L70.1246 25.4763L75.4214 21.1871L66.8429 10.5936L39.4322 32.7904ZM33.0473 55.501C30.1208 57.8708 25.8311 57.4199 23.4613 54.4935C21.0914 51.567 21.5423 47.2773 24.4688 44.9075C27.3952 42.5377 31.685 42.9885 34.0548 45.915C36.4246 48.8415 35.9737 53.1312 33.0473 55.501Z" fill="#31465E"/>
</svg>
